{"title":"The.Twilight.Saga.Breaking.Dawn.Part.1.2011.CAM.XviD-SCR0N","uid":6832030,"size":1183702020,"categoryP":"video","categoryS":"movies","magnet":"?xt=urn:btih:688d9d16a0c6d400ee78230c141f97ffd19d08fc&amp;dn=The.Twilight.Saga.Breaking.Dawn.Part.1.2011.CAM.XviD-SCR0N&amp;tr=udp%3A%2F%2Ftracker.openbittorrent.com%3A80&amp;tr=udp%3A%2F%2Fopen.demonii.com%3A1337&amp;tr=udp%3A%2F%2Ftracker.coppersurfer.tk%3A6969&amp;tr=udp%3A%2F%2Fexodus.desync.com%3A6969","seeders":1,"leechers":0,"uploader":"TvTeam","files":6,"time":1321901894,"description":". \n &lt;a href=&quot;\nhttp://www.torrenting.com&quot; rel=&quot;nofollow&quot; target=&quot;_NEW&quot;&gt;\nhttp://www.torrenting.com&lt;/a&gt;          :     Once &amp; For all ;)\n\n\n               www . Torrenting . Com \n\n(((((((((((((= Enjoy No RAR releases =))))))))))))))))))))\n\n\n...................................NFO:....................................\n\n.General\nComplete name                    : The.Twilight.Saga.Breaking.Dawn.Part.1.2011.CAM.XviD-SCR0N\nFormat                           : AVI\nFormat/Info                      : Audio Video Interleave\nFormat profile                   : OpenDML\nFormat settings                  : rec\nFile size                        : 1.08 GiB\nDuration                         : 1h 43mn\nOverall bit rate                 : 1 505 Kbps\nWriting application              : AVI-Mux GUI 1.17.8.3, Feb 16 201019:42:50\n\nVideo\nID                               : 0\nFormat                           : MPEG-4 Visual\nFormat profile                   : Advanced Simple@L5\nFormat settings, BVOP            : 2\nFormat settings, QPel            : No\nFormat settings, GMC             : No warppoints\nFormat settings, Matrix          : Default (H.263)\nMuxing mode                      : Packed bitstream\nCodec ID                         : XVID\nCodec ID/Hint                    : XviD\nDuration                         : 1h 43mn\nBit rate                         : 1 373 Kbps\nWidth                            : 720 pixels\nHeight                           : 288 pixels\nDisplay aspect ratio             : 2.500\nFrame rate                       : 25.000 fps\nColor space                      : YUV\nChroma subsampling               : 4:2:0\nBit depth                        : 8 bits\nScan type                        : Progressive\nCompression mode                 : Lossy\nBits/(Pixel*Frame)               : 0.265\nStream size                      : 1 012 MiB (91%)\nWriting library                  : XviD 1.3.0.dev55\n\nAudio\nID                               : 1\nFormat                           : MPEG Audio\nFormat version                   : Version 1\nFormat profile                   : Layer 3\nMode                             : Joint stereo\nMode extension                   : MS Stereo\nCodec ID                         : 55\nCodec ID/Hint                    : MP3\nDuration                         : 1h 43mn\nBit rate mode                    : Constant\nBit rate                         : 128 Kbps\nChannel(s)                       : 2 channels\nSampling rate                    : 48.0 KHz\nCompression mode                 : Lossy\nStream size                      : 94.4 MiB (9%)\nAlignment                        : Aligned on interleaves\nInterleave, duration             : 596 ms (14.89 video frames)\nInterleave, preload duration     : 216 ms","torrent":{"xt":"urn:btih:688d9d16a0c6d400ee78230c141f97ffd19d08fc","amp;dn":"The.Twilight.Saga.Breaking.Dawn.Part.1.2011.CAM.XviD-SCR0N","amp;tr":["udp%3A%2F%2Ftracker.openbittorrent.com%3A80","udp%3A%2F%2Fopen.demonii.com%3A1337","udp%3A%2F%2Ftracker.coppersurfer.tk%3A6969","udp%3A%2F%2Fexodus.desync.com%3A6969"],"infoHash":"688d9d16a0c6d400ee78230c141f97ffd19d08fc","infoHashBuffer":{"type":"Buffer","data":[104,141,157,22,160,198,212,0,238,120,35,12,20,31,151,255,209,157,8,252]},"announce":[],"urlList":[]}}